<?xml version="1.0" encoding="UTF-8"?>
<svg version="1.1" xmlns="http://www.w3.org/2000/svg" width="1080" height="1080">
<path d="M0 0 C356.4 0 712.8 0 1080 0 C1080 356.4 1080 712.8 1080 1080 C723.6 1080 367.2 1080 0 1080 C0 723.6 0 367.2 0 0 Z " fill="#01B45E" transform="translate(0,0)"/>
<path d="M0 0 C0.82136444 0.00188324 1.64272888 0.00376648 2.48898315 0.00570679 C21.96119755 0.05809414 40.92712662 0.62505009 60.125 4.125 C61.21876953 4.32222656 62.31253906 4.51945313 63.43945312 4.72265625 C114.49531743 14.11806048 162.60442736 36.31764653 202.125 70.125 C202.88554688 70.76695312 203.64609375 71.40890625 204.4296875 72.0703125 C206.35704612 73.72576161 208.24403689 75.41699901 210.125 77.125 C211.10726562 78.00414062 212.08953125 78.88328125 213.1015625 79.7890625 C224.48841552 90.06211304 234.47823043 101.11491176 243.75439453 113.32177734 C244.65980717 114.51297396 245.56956888 115.70087884 246.48388672 116.88525391 C263.59971066 139.09206474 277.51952979 164.4272453 287.23242188 190.71289062 C288.10916404 193.08220478 289.01472255 195.43906918 289.921875 197.796875 C298.41394846 220.39027221 303.15701118 244.22630516 306.125 268.125 C306.24214355 269.0428125 306.35928711 269.960625 306.47998047 270.90625 C311.02176107 308.05032199 309.02090519 347.13899725 298.65527344 383.17724609 C297.8234089 386.23277798 297.23461112 389.33122311 296.625 392.4375 C295.07557656 399.90290385 292.63600721 406.93647631 290.125 414.125 C289.6400344 415.58140237 289.15706047 417.03846903 288.67578125 418.49609375 C274.1949146 461.9800676 251.02036158 502.95344775 219.59765625 536.46875 C217.60816736 538.60595766 215.69655725 540.77124054 213.8125 543 C205.12523011 552.97890234 195.52728536 561.96882214 185.125 570.125 C183.96028009 571.07703486 182.79763933 572.03161713 181.63671875 572.98828125 C173.1458384 579.95384038 164.41965947 586.27751159 155.125 592.125 C154.39216797 592.58874023 153.65933594 593.05248047 152.90429688 593.53027344 C132.54490823 606.32540559 111.3630113 616.52522945 88.75 624.625 C87.70328125 625.00269531 86.6565625 625.38039063 85.578125 625.76953125 C82.43120145 626.90009267 79.27988544 628.01685973 76.125 629.125 C75.12251221 629.47763916 74.12002441 629.83027832 73.0871582 630.19360352 C66.15757881 632.57270078 59.21418206 634.47707612 52.0625 636.0625 C50.92997803 636.31410889 49.79745605 636.56571777 48.63061523 636.82495117 C38.70678068 638.94316346 28.73138255 640.51468881 18.6875 641.9375 C17.94837372 642.04254852 17.20924744 642.14759705 16.44772339 642.25582886 C1.25465673 644.39315033 -13.59443775 645.28879775 -28.93212891 645.25537109 C-31.89620967 645.24996129 -34.86014229 645.2553696 -37.82421875 645.26171875 C-39.71614617 645.26105878 -41.60807349 645.25977929 -43.5 645.2578125 C-44.38228271 645.25983673 -45.26456543 645.26186096 -46.17358398 645.26394653 C-46.99544189 645.26079437 -47.8172998 645.25764221 -48.6640625 645.25439453 C-49.74228271 645.25320114 -49.74228271 645.25320114 -50.84228516 645.25198364 C-52.96307645 645.11949787 -54.82306948 644.65931348 -56.875 644.125 C-59.08244296 644.02071136 -61.29108727 643.94122008 -63.5 643.875 C-75.47680448 643.3021036 -87.17399641 640.59307638 -98.875 638.125 C-99.69178223 637.95597168 -100.50856445 637.78694336 -101.35009766 637.61279297 C-142.95616007 628.90755293 -183.07192712 610.2732881 -217.875 586.125 C-218.46619629 585.71926758 -219.05739258 585.31353516 -219.66650391 584.89550781 C-227.86210912 579.25893395 -235.51861996 573.21659592 -243.0234375 566.68945312 C-244.42084953 565.5087284 -245.8418147 564.3557997 -247.2734375 563.21679688 C-254.24825964 557.65606205 -260.61830161 551.69213766 -266.89160156 545.36914062 C-268.49847307 543.75153713 -270.11578494 542.14493087 -271.734375 540.5390625 C-278.22776701 534.05390683 -284.15297492 527.3106279 -289.875 520.125 C-290.82133006 519.01129799 -291.77442541 517.90325687 -292.73828125 516.8046875 C-305.55555502 502.12717145 -315.87585339 485.80623143 -325.875 469.125 C-326.4414624 468.19059082 -327.0079248 467.25618164 -327.59155273 466.29345703 C-331.98105904 458.94023075 -335.74796909 451.40811911 -339.3125 443.625 C-339.5922467 443.01661285 -339.87199341 442.40822571 -340.16021729 441.78140259 C-348.51275802 423.59608275 -355.45571159 405.40218307 -360.875 386.125 C-361.14054688 385.20332031 -361.40609375 384.28164063 -361.6796875 383.33203125 C-370.93657866 350.84125979 -371.875 319.22881658 -371.875 285.125 C-344.155 285.125 -316.435 285.125 -287.875 285.125 C-287.875 273.905 -287.875 262.685 -287.875 251.125 C-285.50147059 233.32352941 -285.50147059 233.32352941 -284.125 226.875 C-283.95871094 226.0897998 -283.79242188 225.30459961 -283.62109375 224.49560547 C-281.7971907 216.24375635 -279.22763703 208.26001042 -276.56689453 200.24658203 C-275.58792838 197.24474158 -274.70415636 194.21624366 -273.8125 191.1875 C-271.89373858 184.97102501 -269.53089567 179.06130427 -266.875 173.125 C-266.44888428 172.14829346 -266.44888428 172.14829346 -266.01416016 171.15185547 C-257.61340041 152.00481218 -247.03835714 133.40662077 -233.875 117.125 C-233.01664277 116.00742091 -232.16134694 114.88748602 -231.30859375 113.765625 C-224.94693743 105.440551 -218.15256011 97.659038 -210.875 90.125 C-209.976604 89.19373291 -209.976604 89.19373291 -209.06005859 88.24365234 C-201.39040633 80.33648827 -193.64001706 72.82575287 -184.875 66.125 C-184.18873535 65.58939453 -183.5024707 65.05378906 -182.79541016 64.50195312 C-166.20493194 51.56664693 -148.900031 40.00654195 -129.82861328 31.04882812 C-127.80075673 30.08989171 -125.78886159 29.10208444 -123.77734375 28.109375 C-113.39440731 23.03168575 -102.82928506 18.80404586 -91.875 15.125 C-90.91964355 14.79999512 -89.96428711 14.47499023 -88.97998047 14.14013672 C-60.26310548 4.53409118 -30.24190579 -0.1043544 0 0 Z " fill="#FDFDFD" transform="translate(548.875,200.875)"/>
<path d="M0 0 C25.57342487 21.65575365 44.48724236 49.28400179 54.94116211 81.16845703 C55.21444336 81.95349609 55.48772461 82.73853516 55.76928711 83.54736328 C56.52978523 85.74390837 57.23623245 87.95349385 57.94116211 90.16845703 C58.24795898 91.05146484 58.55475586 91.93447266 58.87084961 92.84423828 C74.29542711 140.85174111 65.01842634 195.42880134 42.82470703 239.69042969 C33.0237196 258.57293909 20.58919129 275.74203017 5.94116211 291.16845703 C5.46984863 291.66700195 4.99853516 292.16554688 4.51293945 292.67919922 C-3.41346079 301.00812187 -11.75696415 308.40924831 -21.05883789 315.16845703 C-21.6329541 315.58691895 -22.20707031 316.00538086 -22.79858398 316.43652344 C-44.19374883 331.81823662 -69.54823101 343.97866691 -95.34008789 349.54736328 C-97.95995814 349.8922882 -97.95995814 349.8922882 -99.05883789 351.16845703 C-102.94642214 351.98907349 -106.88490315 352.54817869 -110.80883789 353.16845703 C-111.8877832 353.34634766 -112.96672852 353.52423828 -114.07836914 353.70751953 C-138.13804688 357.55018558 -163.11209582 357.83473868 -187.05883789 353.16845703 C-187.75203125 353.03987305 -188.44522461 352.91128906 -189.15942383 352.77880859 C-231.78607664 344.66632697 -271.05255281 323.28475637 -302.05883789 293.16845703 C-302.59492676 292.65283203 -303.13101563 292.13720703 -303.68334961 291.60595703 C-329.40863878 266.78317873 -348.57236411 235.94189392 -360.34399414 202.21484375 C-360.83729933 200.80265655 -361.33774915 199.3929519 -361.84399414 197.98535156 C-365.20456989 188.63215493 -367.85016548 179.47168973 -369.46899414 169.66064453 C-369.95185824 166.80183327 -370.54166871 164.03991416 -371.24633789 161.23095703 C-372.05883789 157.16845703 -372.05883789 157.16845703 -372.05883789 148.16845703 C-349.28883789 148.16845703 -326.51883789 148.16845703 -303.05883789 148.16845703 C-301.73883789 154.10845703 -300.41883789 160.04845703 -299.05883789 166.16845703 C-296.51834785 176.94363895 -293.12972941 186.40552018 -288.05883789 196.16845703 C-287.68452637 196.89500488 -287.31021484 197.62155273 -286.92456055 198.37011719 C-278.97845321 213.63955528 -269.31863717 226.3168015 -257.43579102 238.72412109 C-256.21762644 240.00189798 -255.01946721 241.2986818 -253.82446289 242.59814453 C-243.10462375 253.92248588 -229.77843507 261.99413592 -216.05883789 269.16845703 C-215.43146729 269.50441895 -214.80409668 269.84038086 -214.15771484 270.18652344 C-208.97562332 272.88881325 -203.66948358 274.85065916 -198.12133789 276.66845703 C-196.74969482 277.12019287 -196.74969482 277.12019287 -195.3503418 277.58105469 C-179.04282851 282.846934 -163.71443097 285.35660645 -146.55883789 285.29345703 C-145.50825195 285.29732422 -144.45766602 285.30119141 -143.37524414 285.30517578 C-133.22092798 285.29262409 -123.4805648 284.61357049 -113.62133789 282.10595703 C-112.77224854 281.89044189 -111.92315918 281.67492676 -111.04833984 281.45288086 C-80.36161777 273.28500093 -52.4861367 256.51914277 -33.05883789 231.16845703 C-32.37950195 230.29318359 -31.70016602 229.41791016 -31.00024414 228.51611328 C-25.65779073 221.42408448 -21.29586611 213.94851747 -17.05883789 206.16845703 C-16.58446289 205.33830078 -16.11008789 204.50814453 -15.62133789 203.65283203 C-12.07733709 197.14073056 -10.16769125 190.26552834 -8.19165039 183.16064453 C-7.34921629 180.13266353 -6.39100364 177.1832733 -5.30883789 174.23095703 C0.55712114 156.84561467 -1.24553093 131.66021935 -6.05883789 114.16845703 C-6.52870117 112.42435547 -6.52870117 112.42435547 -7.00805664 110.64501953 C-14.95547236 83.19031067 -33.12239054 58.30276647 -58.07543945 44.01367188 C-84.4639134 29.69011362 -113.2007473 24.93855878 -142.31665039 33.35205078 C-158.6179937 38.45336822 -172.05917461 47.15007353 -184.05883789 59.16845703 C-185.03530273 60.03857422 -185.03530273 60.03857422 -186.03149414 60.92626953 C-202.61502926 75.96100069 -208.23823666 99.0139478 -211.05883789 120.16845703 C-232.83883789 120.16845703 -254.61883789 120.16845703 -277.05883789 120.16845703 C-277.05883789 101.26557441 -274.75708329 83.85055507 -268.05883789 66.16845703 C-267.7352832 65.29576172 -267.41172852 64.42306641 -267.07836914 63.52392578 C-259.85875972 45.11761781 -248.73516938 28.38922847 -235.05883789 14.16845703 C-234.59670898 13.67522949 -234.13458008 13.18200195 -233.65844727 12.67382812 C-220.92042366 -0.89475469 -206.59233287 -11.33910269 -190.05883789 -19.83154297 C-189.39835449 -20.17668945 -188.73787109 -20.52183594 -188.05737305 -20.87744141 C-127.80076797 -52.0522213 -52.08995348 -42.89760875 0 0 Z " fill="#03B45F" transform="translate(666.058837890625,362.83154296875)"/>
<path d="M0 0 C9.30549546 7.15377428 16.34346393 16.03637111 22.125 26.1875 C22.79982422 27.36892578 22.79982422 27.36892578 23.48828125 28.57421875 C28.82241094 38.56539046 32.89479091 49.79982378 33.125 61.1875 C33.14933105 61.85233398 33.17366211 62.51716797 33.19873047 63.20214844 C34.28464149 94.40354227 22.81783993 121.82017946 1.5859375 144.71875 C-19.72633117 166.09867667 -48.26568601 178.48747401 -78.4375 178.5625 C-82.58737725 178.50530989 -86.72890008 178.37088787 -90.875 178.1875 C-91.70418945 178.15414551 -92.53337891 178.12079102 -93.38769531 178.08642578 C-126.08494045 176.47439486 -155.57694627 159.14139298 -177.37890625 135.46875 C-188.77970275 121.98606892 -197.55199865 106.57347743 -203.25 89.875 C-203.50096436 89.14635742 -203.75192871 88.41771484 -204.01049805 87.66699219 C-205.74639994 82.32556941 -206.23244668 77.97047992 -206.875 72.1875 C-174.865 72.1875 -142.855 72.1875 -109.875 72.1875 C-111.525 66.9075 -113.175 61.6275 -114.875 56.1875 C-115.31574147 52.59675335 -115.60719442 49.65345192 -115.5 46.125 C-115.47788452 44.87021851 -115.47788452 44.87021851 -115.45532227 43.59008789 C-114.81456634 27.17012977 -106.82686029 12.32671308 -94.875 1.1875 C-87.49401919 -4.6521865 -79.74599352 -9.54356453 -70.875 -12.8125 C-70.02421875 -13.13089844 -69.1734375 -13.44929688 -68.296875 -13.77734375 C-44.50866577 -21.15168861 -19.84366556 -13.61107764 0 0 Z " fill="#03B460" transform="translate(600.875,438.8125)"/>
<path d="M0 0 C0.33 0 0.66 0 1 0 C1 9.9 1 19.8 1 30 C0.67 30 0.34 30 0 30 C-0.33 28.02 -0.66 26.04 -1 24 C-1.33 24 -1.66 24 -2 24 C-2.05819424 20.75007554 -2.09366116 17.50028565 -2.125 14.25 C-2.14175781 13.32960938 -2.15851562 12.40921875 -2.17578125 11.4609375 C-2.18222656 10.57148438 -2.18867187 9.68203125 -2.1953125 8.765625 C-2.20578613 7.94868164 -2.21625977 7.13173828 -2.22705078 6.29003906 C-1.97829916 3.78112482 -1.25700129 2.16604375 0 0 Z " fill="#E7F8ED" transform="translate(663,493)"/>
<path d="M0 0 C4.33756144 -0.02505701 8.67508251 -0.04302559 13.01269531 -0.05493164 C14.48275488 -0.05990456 15.95280965 -0.06668527 17.42285156 -0.07543945 C26.32906499 -0.12707848 35.13171416 0.0568142 44 1 C44 1.33 44 1.66 44 2 C39.05 2.33 34.1 2.66 29 3 C29 2.67 29 2.34 29 2 C19.43 1.67 9.86 1.34 0 1 C0 0.67 0 0.34 0 0 Z " fill="#1FB76F" transform="translate(506,846)"/>
<path d="M0 0 C0.33 0.99 0.66 1.98 1 3 C-1.85276137 5.93200474 -4.65079784 8.64315404 -8 11 C-8.66 10.67 -9.32 10.34 -10 10 C-6.7 6.7 -3.4 3.4 0 0 Z " fill="#0FB263" transform="translate(440,368)"/>
<path d="M0 0 C0.66 0.33 1.32 0.66 2 1 C1.54917531 2.46067199 1.08906463 3.91848032 0.625 5.375 C0.36976563 6.18710937 0.11453125 6.99921875 -0.1484375 7.8359375 C-1 10 -1 10 -3 12 C-3.66 12 -4.32 12 -5 12 C-3.68938409 7.76570244 -2.05643741 3.92592596 0 0 Z " fill="#D6F3E7" transform="translate(286,366)"/>
<path d="M0 0 C2.4375 0.625 2.4375 0.625 5 2 C5.8125 5.125 5.8125 5.125 6 8 C3.69 6.02 1.38 4.04 -1 2 C-0.67 1.34 -0.34 0.68 0 0 Z " fill="#0AAA5E" transform="translate(625,416)"/>
<path d="M0 0 C0.66 0.33 1.32 0.66 2 1 C-0.31 3.64 -2.62 6.28 -5 9 C-5.99 8.34 -6.98 7.68 -8 7 C-5.36 4.69 -2.72 2.38 0 0 Z " fill="#1CB56B" transform="translate(618,610)"/>
<path d="M0 0 C-0.639375 0.103125 -1.27875 0.20625 -1.9375 0.3125 C-2.618125 0.539375 -3.29875 0.76625 -4 1 C-4.33 1.99 -4.66 2.98 -5 4 C-6.32 3.67 -7.64 3.34 -9 3 C-9.33 3.66 -9.66 4.32 -10 5 C-10.66 4.34 -11.32 3.68 -12 3 C-10.3789897 2.30314502 -8.75303934 1.61777139 -7.125 0.9375 C-6.22007812 0.55464844 -5.31515625 0.17179688 -4.3828125 -0.22265625 C-2 -1 -2 -1 0 0 Z " fill="#3DC27F" transform="translate(652,821)"/>
<path d="M0 0 C0.33 1.32 0.66 2.64 1 4 C-0.21484375 5.703125 -0.21484375 5.703125 -1.9375 7.25 C-2.50339844 7.77078125 -3.06929687 8.2915625 -3.65234375 8.828125 C-4.09707031 9.21484375 -4.54179688 9.6015625 -5 10 C-5.66 9.67 -6.32 9.34 -7 9 C-4.69 6.03 -2.38 3.06 0 0 Z " fill="#1FBB6F" transform="translate(783,719)"/>
<path d="M0 0 C0 3.62453269 -0.92469613 5.07920195 -3 8 C-3.99 8.33 -4.98 8.66 -6 9 C-6 6 -6 6 -4.6875 4.39453125 C-4.130625 3.87246094 -3.57375 3.35039063 -3 2.8125 C-2.443125 2.28269531 -1.88625 1.75289062 -1.3125 1.20703125 C-0.6628125 0.60955078 -0.6628125 0.60955078 0 0 Z " fill="#DDF5E9" transform="translate(669,656)"/>
<path d="M0 0 C0.33 0.66 0.66 1.32 1 2 C-0.65 4.31 -2.3 6.62 -4 9 C-4.66 8.34 -5.32 7.68 -6 7 C-4.02 4.69 -2.04 2.38 0 0 Z " fill="#24BC71" transform="translate(505,441)"/>
<path d="M0 0 C0 0.66 0 1.32 0 2 C-0.99 2 -1.98 2 -3 2 C-3.33 2.99 -3.66 3.98 -4 5 C-5.98 5 -7.96 5 -10 5 C-3.63636364 0 -3.63636364 0 0 0 Z " fill="#37C17D" transform="translate(674,810)"/>
<path d="M0 0 C0.33 0.66 0.66 1.32 1 2 C0.34 2 -0.32 2 -1 2 C-1.33 2.99 -1.66 3.98 -2 5 C-4.0625 6.1875 -4.0625 6.1875 -6 7 C-6.66 6.34 -7.32 5.68 -8 5 C-4.04 2.525 -4.04 2.525 0 0 Z " fill="#19BA6B" transform="translate(712,787)"/>
<path d="M0 0 C0.8971875 0.5259375 0.8971875 0.5259375 1.8125 1.0625 C1.8125 1.3925 1.8125 1.7225 1.8125 2.0625 C-1.1575 2.7225 -4.1275 3.3825 -7.1875 4.0625 C-4.24632353 -1.81985294 -4.24632353 -1.81985294 0 0 Z " fill="#EBF8F3" transform="translate(536.1875,422.9375)"/>
<path d="M0 0 C0.66 0.66 1.32 1.32 2 2 C0.35 3.65 -1.3 5.3 -3 7 C-3 3 -3 3 -1.5 1.25 C-1.005 0.8375 -0.51 0.425 0 0 Z " fill="#E7F6EE" transform="translate(765,737)"/>
<path d="M0 0 C0.66 0.66 1.32 1.32 2 2 C1.01 4.31 0.02 6.62 -1 9 C-1.66 9 -2.32 9 -3 9 C-2.01 6.03 -1.02 3.06 0 0 Z " fill="#30C17A" transform="translate(830,638)"/>
</svg>
